<svg width="400" height="400" viewBox="0 0 400 400" xmlns="http://www.w3.org/2000/svg">
<rect x="0" y="0" width="400" height="400" opacity="1" fill="#FFFFFF" stroke="none"/>
<line opacity="0.1" stroke="#000000" stroke-width="1" x1="33" y1="367" x2="33" y2="12"/>
<line opacity="0.1" stroke="#000000" stroke-width="1" x1="37" y1="367" x2="37" y2="12"/>
<line opacity="0.1" stroke="#000000" stroke-width="1" x1="40" y1="367" x2="40" y2="12"/>
<line opacity="0.1" stroke="#000000" stroke-width="1" x1="44" y1="367" x2="44" y2="12"/>
<line opacity="0.1" stroke="#000000" stroke-width="1" x1="47" y1="367" x2="47" y2="12"/>
<line opacity="0.1" stroke="#000000" stroke-width="1" x1="51" y1="367" x2="51" y2="12"/>
<line opacity="0.1" stroke="#000000" stroke-width="1" x1="54" y1="367" x2="54" y2="12"/>
<line opacity="0.1" stroke="#000000" stroke-width="1" x1="58" y1="367" x2="58" y2="12"/>
<line opacity="0.1" stroke="#000000" stroke-width="1" x1="61" y1="367" x2="61" y2="12"/>
<line opacity="0.1" stroke="#000000" stroke-width="1" x1="65" y1="367" x2="65" y2="12"/>
<line opacity="0.1" stroke="#000000" stroke-width="1" x1="69" y1="367" x2="69" y2="12"/>
<line opacity="0.1" stroke="#000000" stroke-width="1" x1="72" y1="367" x2="72" y2="12"/>
<line opacity="0.1" stroke="#000000" stroke-width="1" x1="76" y1="367" x2="76" y2="12"/>
<line opacity="0.1" stroke="#000000" stroke-width="1" x1="79" y1="367" x2="79" y2="12"/>
<line opacity="0.1" stroke="#000000" stroke-width="1" x1="83" y1="367" x2="83" y2="12"/>
<line opacity="0.1" stroke="#000000" stroke-width="1" x1="86" y1="367" x2="86" y2="12"/>
<line opacity="0.1" stroke="#000000" stroke-width="1" x1="90" y1="367" x2="90" y2="12"/>
<line opacity="0.1" stroke="#000000" stroke-width="1" x1="93" y1="367" x2="93" y2="12"/>
<line opacity="0.1" stroke="#000000" stroke-width="1" x1="97" y1="367" x2="97" y2="12"/>
<line opacity="0.1" stroke="#000000" stroke-width="1" x1="100" y1="367" x2="100" y2="12"/>
<line opacity="0.1" stroke="#000000" stroke-width="1" x1="104" y1="367" x2="104" y2="12"/>
<line opacity="0.1" stroke="#000000" stroke-width="1" x1="108" y1="367" x2="108" y2="12"/>
<line opacity="0.1" stroke="#000000" stroke-width="1" x1="111" y1="367" x2="111" y2="12"/>
<line opacity="0.1" stroke="#000000" stroke-width="1" x1="115" y1="367" x2="115" y2="12"/>
<line opacity="0.1" stroke="#000000" stroke-width="1" x1="118" y1="367" x2="118" y2="12"/>
<line opacity="0.1" stroke="#000000" stroke-width="1" x1="122" y1="367" x2="122" y2="12"/>
<line opacity="0.1" stroke="#000000" stroke-width="1" x1="125" y1="367" x2="125" y2="12"/>
<line opacity="0.1" stroke="#000000" stroke-width="1" x1="129" y1="367" x2="129" y2="12"/>
<line opacity="0.1" stroke="#000000" stroke-width="1" x1="132" y1="367" x2="132" y2="12"/>
<line opacity="0.1" stroke="#000000" stroke-width="1" x1="136" y1="367" x2="136" y2="12"/>
<line opacity="0.1" stroke="#000000" stroke-width="1" x1="139" y1="367" x2="139" y2="12"/>
<line opacity="0.1" stroke="#000000" stroke-width="1" x1="143" y1="367" x2="143" y2="12"/>
<line opacity="0.1" stroke="#000000" stroke-width="1" x1="147" y1="367" x2="147" y2="12"/>
<line opacity="0.1" stroke="#000000" stroke-width="1" x1="150" y1="367" x2="150" y2="12"/>
<line opacity="0.1" stroke="#000000" stroke-width="1" x1="154" y1="367" x2="154" y2="12"/>
<line opacity="0.1" stroke="#000000" stroke-width="1" x1="157" y1="367" x2="157" y2="12"/>
<line opacity="0.1" stroke="#000000" stroke-width="1" x1="161" y1="367" x2="161" y2="12"/>
<line opacity="0.1" stroke="#000000" stroke-width="1" x1="164" y1="367" x2="164" y2="12"/>
<line opacity="0.1" stroke="#000000" stroke-width="1" x1="168" y1="367" x2="168" y2="12"/>
<line opacity="0.1" stroke="#000000" stroke-width="1" x1="171" y1="367" x2="171" y2="12"/>
<line opacity="0.1" stroke="#000000" stroke-width="1" x1="175" y1="367" x2="175" y2="12"/>
<line opacity="0.1" stroke="#000000" stroke-width="1" x1="178" y1="367" x2="178" y2="12"/>
<line opacity="0.1" stroke="#000000" stroke-width="1" x1="182" y1="367" x2="182" y2="12"/>
<line opacity="0.1" stroke="#000000" stroke-width="1" x1="186" y1="367" x2="186" y2="12"/>
<line opacity="0.1" stroke="#000000" stroke-width="1" x1="189" y1="367" x2="189" y2="12"/>
<line opacity="0.1" stroke="#000000" stroke-width="1" x1="193" y1="367" x2="193" y2="12"/>
<line opacity="0.1" stroke="#000000" stroke-width="1" x1="196" y1="367" x2="196" y2="12"/>
<line opacity="0.1" stroke="#000000" stroke-width="1" x1="200" y1="367" x2="200" y2="12"/>
<line opacity="0.1" stroke="#000000" stroke-width="1" x1="203" y1="367" x2="203" y2="12"/>
<line opacity="0.1" stroke="#000000" stroke-width="1" x1="207" y1="367" x2="207" y2="12"/>
<line opacity="0.1" stroke="#000000" stroke-width="1" x1="210" y1="367" x2="210" y2="12"/>
<line opacity="0.1" stroke="#000000" stroke-width="1" x1="214" y1="367" x2="214" y2="12"/>
<line opacity="0.1" stroke="#000000" stroke-width="1" x1="217" y1="367" x2="217" y2="12"/>
<line opacity="0.1" stroke="#000000" stroke-width="1" x1="221" y1="367" x2="221" y2="12"/>
<line opacity="0.1" stroke="#000000" stroke-width="1" x1="225" y1="367" x2="225" y2="12"/>
<line opacity="0.1" stroke="#000000" stroke-width="1" x1="228" y1="367" x2="228" y2="12"/>
<line opacity="0.1" stroke="#000000" stroke-width="1" x1="232" y1="367" x2="232" y2="12"/>
<line opacity="0.1" stroke="#000000" stroke-width="1" x1="235" y1="367" x2="235" y2="12"/>
<line opacity="0.1" stroke="#000000" stroke-width="1" x1="239" y1="367" x2="239" y2="12"/>
<line opacity="0.1" stroke="#000000" stroke-width="1" x1="242" y1="367" x2="242" y2="12"/>
<line opacity="0.1" stroke="#000000" stroke-width="1" x1="246" y1="367" x2="246" y2="12"/>
<line opacity="0.1" stroke="#000000" stroke-width="1" x1="249" y1="367" x2="249" y2="12"/>
<line opacity="0.1" stroke="#000000" stroke-width="1" x1="253" y1="367" x2="253" y2="12"/>
<line opacity="0.1" stroke="#000000" stroke-width="1" x1="256" y1="367" x2="256" y2="12"/>
<line opacity="0.1" stroke="#000000" stroke-width="1" x1="260" y1="367" x2="260" y2="12"/>
<line opacity="0.1" stroke="#000000" stroke-width="1" x1="264" y1="367" x2="264" y2="12"/>
<line opacity="0.1" stroke="#000000" stroke-width="1" x1="267" y1="367" x2="267" y2="12"/>
<line opacity="0.1" stroke="#000000" stroke-width="1" x1="271" y1="367" x2="271" y2="12"/>
<line opacity="0.1" stroke="#000000" stroke-width="1" x1="274" y1="367" x2="274" y2="12"/>
<line opacity="0.1" stroke="#000000" stroke-width="1" x1="278" y1="367" x2="278" y2="12"/>
<line opacity="0.1" stroke="#000000" stroke-width="1" x1="281" y1="367" x2="281" y2="12"/>
<line opacity="0.1" stroke="#000000" stroke-width="1" x1="285" y1="367" x2="285" y2="12"/>
<line opacity="0.1" stroke="#000000" stroke-width="1" x1="288" y1="367" x2="288" y2="12"/>
<line opacity="0.1" stroke="#000000" stroke-width="1" x1="292" y1="367" x2="292" y2="12"/>
<line opacity="0.1" stroke="#000000" stroke-width="1" x1="295" y1="367" x2="295" y2="12"/>
<line opacity="0.1" stroke="#000000" stroke-width="1" x1="299" y1="367" x2="299" y2="12"/>
<line opacity="0.1" stroke="#000000" stroke-width="1" x1="303" y1="367" x2="303" y2="12"/>
<line opacity="0.1" stroke="#000000" stroke-width="1" x1="306" y1="367" x2="306" y2="12"/>
<line opacity="0.1" stroke="#000000" stroke-width="1" x1="310" y1="367" x2="310" y2="12"/>
<line opacity="0.1" stroke="#000000" stroke-width="1" x1="313" y1="367" x2="313" y2="12"/>
<line opacity="0.1" stroke="#000000" stroke-width="1" x1="317" y1="367" x2="317" y2="12"/>
<line opacity="0.1" stroke="#000000" stroke-width="1" x1="320" y1="367" x2="320" y2="12"/>
<line opacity="0.1" stroke="#000000" stroke-width="1" x1="324" y1="367" x2="324" y2="12"/>
<line opacity="0.1" stroke="#000000" stroke-width="1" x1="327" y1="367" x2="327" y2="12"/>
<line opacity="0.1" stroke="#000000" stroke-width="1" x1="331" y1="367" x2="331" y2="12"/>
<line opacity="0.1" stroke="#000000" stroke-width="1" x1="334" y1="367" x2="334" y2="12"/>
<line opacity="0.1" stroke="#000000" stroke-width="1" x1="338" y1="367" x2="338" y2="12"/>
<line opacity="0.1" stroke="#000000" stroke-width="1" x1="342" y1="367" x2="342" y2="12"/>
<line opacity="0.1" stroke="#000000" stroke-width="1" x1="345" y1="367" x2="345" y2="12"/>
<line opacity="0.1" stroke="#000000" stroke-width="1" x1="349" y1="367" x2="349" y2="12"/>
<line opacity="0.1" stroke="#000000" stroke-width="1" x1="352" y1="367" x2="352" y2="12"/>
<line opacity="0.1" stroke="#000000" stroke-width="1" x1="356" y1="367" x2="356" y2="12"/>
<line opacity="0.1" stroke="#000000" stroke-width="1" x1="359" y1="367" x2="359" y2="12"/>
<line opacity="0.1" stroke="#000000" stroke-width="1" x1="363" y1="367" x2="363" y2="12"/>
<line opacity="0.1" stroke="#000000" stroke-width="1" x1="366" y1="367" x2="366" y2="12"/>
<line opacity="0.1" stroke="#000000" stroke-width="1" x1="370" y1="367" x2="370" y2="12"/>
<line opacity="0.1" stroke="#000000" stroke-width="1" x1="373" y1="367" x2="373" y2="12"/>
<line opacity="0.1" stroke="#000000" stroke-width="1" x1="377" y1="367" x2="377" y2="12"/>
<line opacity="0.1" stroke="#000000" stroke-width="1" x1="381" y1="367" x2="381" y2="12"/>
<line opacity="0.1" stroke="#000000" stroke-width="1" x1="385" y1="367" x2="385" y2="12"/>
<line opacity="0.1" stroke="#000000" stroke-width="1" x1="32" y1="367" x2="387" y2="367"/>
<line opacity="0.1" stroke="#000000" stroke-width="1" x1="32" y1="362" x2="387" y2="362"/>
<line opacity="0.1" stroke="#000000" stroke-width="1" x1="32" y1="356" x2="387" y2="356"/>
<line opacity="0.1" stroke="#000000" stroke-width="1" x1="32" y1="350" x2="387" y2="350"/>
<line opacity="0.1" stroke="#000000" stroke-width="1" x1="32" y1="344" x2="387" y2="344"/>
<line opacity="0.1" stroke="#000000" stroke-width="1" x1="32" y1="338" x2="387" y2="338"/>
<line opacity="0.1" stroke="#000000" stroke-width="1" x1="32" y1="332" x2="387" y2="332"/>
<line opacity="0.1" stroke="#000000" stroke-width="1" x1="32" y1="326" x2="387" y2="326"/>
<line opacity="0.1" stroke="#000000" stroke-width="1" x1="32" y1="320" x2="387" y2="320"/>
<line opacity="0.1" stroke="#000000" stroke-width="1" x1="32" y1="314" x2="387" y2="314"/>
<line opacity="0.1" stroke="#000000" stroke-width="1" x1="32" y1="308" x2="387" y2="308"/>
<line opacity="0.1" stroke="#000000" stroke-width="1" x1="32" y1="302" x2="387" y2="302"/>
<line opacity="0.1" stroke="#000000" stroke-width="1" x1="32" y1="296" x2="387" y2="296"/>
<line opacity="0.1" stroke="#000000" stroke-width="1" x1="32" y1="291" x2="387" y2="291"/>
<line opacity="0.1" stroke="#000000" stroke-width="1" x1="32" y1="285" x2="387" y2="285"/>
<line opacity="0.1" stroke="#000000" stroke-width="1" x1="32" y1="279" x2="387" y2="279"/>
<line opacity="0.1" stroke="#000000" stroke-width="1" x1="32" y1="273" x2="387" y2="273"/>
<line opacity="0.1" stroke="#000000" stroke-width="1" x1="32" y1="267" x2="387" y2="267"/>
<line opacity="0.1" stroke="#000000" stroke-width="1" x1="32" y1="261" x2="387" y2="261"/>
<line opacity="0.1" stroke="#000000" stroke-width="1" x1="32" y1="255" x2="387" y2="255"/>
<line opacity="0.1" stroke="#000000" stroke-width="1" x1="32" y1="249" x2="387" y2="249"/>
<line opacity="0.1" stroke="#000000" stroke-width="1" x1="32" y1="243" x2="387" y2="243"/>
<line opacity="0.1" stroke="#000000" stroke-width="1" x1="32" y1="237" x2="387" y2="237"/>
<line opacity="0.1" stroke="#000000" stroke-width="1" x1="32" y1="231" x2="387" y2="231"/>
<line opacity="0.1" stroke="#000000" stroke-width="1" x1="32" y1="225" x2="387" y2="225"/>
<line opacity="0.1" stroke="#000000" stroke-width="1" x1="32" y1="220" x2="387" y2="220"/>
<line opacity="0.1" stroke="#000000" stroke-width="1" x1="32" y1="214" x2="387" y2="214"/>
<line opacity="0.1" stroke="#000000" stroke-width="1" x1="32" y1="208" x2="387" y2="208"/>
<line opacity="0.1" stroke="#000000" stroke-width="1" x1="32" y1="202" x2="387" y2="202"/>
<line opacity="0.1" stroke="#000000" stroke-width="1" x1="32" y1="196" x2="387" y2="196"/>
<line opacity="0.1" stroke="#000000" stroke-width="1" x1="32" y1="190" x2="387" y2="190"/>
<line opacity="0.1" stroke="#000000" stroke-width="1" x1="32" y1="184" x2="387" y2="184"/>
<line opacity="0.1" stroke="#000000" stroke-width="1" x1="32" y1="178" x2="387" y2="178"/>
<line opacity="0.1" stroke="#000000" stroke-width="1" x1="32" y1="172" x2="387" y2="172"/>
<line opacity="0.1" stroke="#000000" stroke-width="1" x1="32" y1="166" x2="387" y2="166"/>
<line opacity="0.1" stroke="#000000" stroke-width="1" x1="32" y1="160" x2="387" y2="160"/>
<line opacity="0.1" stroke="#000000" stroke-width="1" x1="32" y1="154" x2="387" y2="154"/>
<line opacity="0.1" stroke="#000000" stroke-width="1" x1="32" y1="149" x2="387" y2="149"/>
<line opacity="0.1" stroke="#000000" stroke-width="1" x1="32" y1="143" x2="387" y2="143"/>
<line opacity="0.1" stroke="#000000" stroke-width="1" x1="32" y1="137" x2="387" y2="137"/>
<line opacity="0.1" stroke="#000000" stroke-width="1" x1="32" y1="131" x2="387" y2="131"/>
<line opacity="0.1" stroke="#000000" stroke-width="1" x1="32" y1="125" x2="387" y2="125"/>
<line opacity="0.1" stroke="#000000" stroke-width="1" x1="32" y1="119" x2="387" y2="119"/>
<line opacity="0.1" stroke="#000000" stroke-width="1" x1="32" y1="113" x2="387" y2="113"/>
<line opacity="0.1" stroke="#000000" stroke-width="1" x1="32" y1="107" x2="387" y2="107"/>
<line opacity="0.1" stroke="#000000" stroke-width="1" x1="32" y1="101" x2="387" y2="101"/>
<line opacity="0.1" stroke="#000000" stroke-width="1" x1="32" y1="95" x2="387" y2="95"/>
<line opacity="0.1" stroke="#000000" stroke-width="1" x1="32" y1="89" x2="387" y2="89"/>
<line opacity="0.1" stroke="#000000" stroke-width="1" x1="32" y1="83" x2="387" y2="83"/>
<line opacity="0.1" stroke="#000000" stroke-width="1" x1="32" y1="78" x2="387" y2="78"/>
<line opacity="0.1" stroke="#000000" stroke-width="1" x1="32" y1="72" x2="387" y2="72"/>
<line opacity="0.1" stroke="#000000" stroke-width="1" x1="32" y1="66" x2="387" y2="66"/>
<line opacity="0.1" stroke="#000000" stroke-width="1" x1="32" y1="60" x2="387" y2="60"/>
<line opacity="0.1" stroke="#000000" stroke-width="1" x1="32" y1="54" x2="387" y2="54"/>
<line opacity="0.1" stroke="#000000" stroke-width="1" x1="32" y1="48" x2="387" y2="48"/>
<line opacity="0.1" stroke="#000000" stroke-width="1" x1="32" y1="42" x2="387" y2="42"/>
<line opacity="0.1" stroke="#000000" stroke-width="1" x1="32" y1="36" x2="387" y2="36"/>
<line opacity="0.1" stroke="#000000" stroke-width="1" x1="32" y1="30" x2="387" y2="30"/>
<line opacity="0.1" stroke="#000000" stroke-width="1" x1="32" y1="24" x2="387" y2="24"/>
<line opacity="0.1" stroke="#000000" stroke-width="1" x1="32" y1="18" x2="387" y2="18"/>
<line opacity="0.1" stroke="#000000" stroke-width="1" x1="32" y1="12" x2="387" y2="12"/>
<line opacity="0.2" stroke="#000000" stroke-width="1" x1="65" y1="367" x2="65" y2="12"/>
<line opacity="0.2" stroke="#000000" stroke-width="1" x1="100" y1="367" x2="100" y2="12"/>
<line opacity="0.2" stroke="#000000" stroke-width="1" x1="136" y1="367" x2="136" y2="12"/>
<line opacity="0.2" stroke="#000000" stroke-width="1" x1="171" y1="367" x2="171" y2="12"/>
<line opacity="0.2" stroke="#000000" stroke-width="1" x1="207" y1="367" x2="207" y2="12"/>
<line opacity="0.2" stroke="#000000" stroke-width="1" x1="242" y1="367" x2="242" y2="12"/>
<line opacity="0.2" stroke="#000000" stroke-width="1" x1="278" y1="367" x2="278" y2="12"/>
<line opacity="0.2" stroke="#000000" stroke-width="1" x1="313" y1="367" x2="313" y2="12"/>
<line opacity="0.2" stroke="#000000" stroke-width="1" x1="349" y1="367" x2="349" y2="12"/>
<line opacity="0.2" stroke="#000000" stroke-width="1" x1="385" y1="367" x2="385" y2="12"/>
<line opacity="0.2" stroke="#000000" stroke-width="1" x1="32" y1="367" x2="387" y2="367"/>
<line opacity="0.2" stroke="#000000" stroke-width="1" x1="32" y1="308" x2="387" y2="308"/>
<line opacity="0.2" stroke="#000000" stroke-width="1" x1="32" y1="249" x2="387" y2="249"/>
<line opacity="0.2" stroke="#000000" stroke-width="1" x1="32" y1="190" x2="387" y2="190"/>
<line opacity="0.2" stroke="#000000" stroke-width="1" x1="32" y1="131" x2="387" y2="131"/>
<line opacity="0.2" stroke="#000000" stroke-width="1" x1="32" y1="72" x2="387" y2="72"/>
<line opacity="0.2" stroke="#000000" stroke-width="1" x1="32" y1="12" x2="387" y2="12"/>
<polyline fill="none" opacity="1" stroke="#000000" stroke-width="1" points="31,12 31,367 "/>
<text x="22" y="367" dy="0.5ex" text-anchor="end" font-family="sans-serif" font-size="9.67741935483871" opacity="1" fill="#000000">
0
</text>
<polyline fill="none" opacity="1" stroke="#000000" stroke-width="1" points="26,367 31,367 "/>
<text x="22" y="308" dy="0.5ex" text-anchor="end" font-family="sans-serif" font-size="9.67741935483871" opacity="1" fill="#000000">
500
</text>
<polyline fill="none" opacity="1" stroke="#000000" stroke-width="1" points="26,308 31,308 "/>
<text x="22" y="249" dy="0.5ex" text-anchor="end" font-family="sans-serif" font-size="9.67741935483871" opacity="1" fill="#000000">
1000
</text>
<polyline fill="none" opacity="1" stroke="#000000" stroke-width="1" points="26,249 31,249 "/>
<text x="22" y="190" dy="0.5ex" text-anchor="end" font-family="sans-serif" font-size="9.67741935483871" opacity="1" fill="#000000">
1500
</text>
<polyline fill="none" opacity="1" stroke="#000000" stroke-width="1" points="26,190 31,190 "/>
<text x="22" y="131" dy="0.5ex" text-anchor="end" font-family="sans-serif" font-size="9.67741935483871" opacity="1" fill="#000000">
2000
</text>
<polyline fill="none" opacity="1" stroke="#000000" stroke-width="1" points="26,131 31,131 "/>
<text x="22" y="72" dy="0.5ex" text-anchor="end" font-family="sans-serif" font-size="9.67741935483871" opacity="1" fill="#000000">
2500
</text>
<polyline fill="none" opacity="1" stroke="#000000" stroke-width="1" points="26,72 31,72 "/>
<text x="22" y="12" dy="0.5ex" text-anchor="end" font-family="sans-serif" font-size="9.67741935483871" opacity="1" fill="#000000">
3000
</text>
<polyline fill="none" opacity="1" stroke="#000000" stroke-width="1" points="26,12 31,12 "/>
<polyline fill="none" opacity="1" stroke="#000000" stroke-width="1" points="32,368 387,368 "/>
<text x="65" y="378" dy="0.76em" text-anchor="middle" font-family="sans-serif" font-size="9.67741935483871" opacity="1" fill="#000000">
10
</text>
<polyline fill="none" opacity="1" stroke="#000000" stroke-width="1" points="65,368 65,373 "/>
<text x="100" y="378" dy="0.76em" text-anchor="middle" font-family="sans-serif" font-size="9.67741935483871" opacity="1" fill="#000000">
20
</text>
<polyline fill="none" opacity="1" stroke="#000000" stroke-width="1" points="100,368 100,373 "/>
<text x="136" y="378" dy="0.76em" text-anchor="middle" font-family="sans-serif" font-size="9.67741935483871" opacity="1" fill="#000000">
30
</text>
<polyline fill="none" opacity="1" stroke="#000000" stroke-width="1" points="136,368 136,373 "/>
<text x="171" y="378" dy="0.76em" text-anchor="middle" font-family="sans-serif" font-size="9.67741935483871" opacity="1" fill="#000000">
40
</text>
<polyline fill="none" opacity="1" stroke="#000000" stroke-width="1" points="171,368 171,373 "/>
<text x="207" y="378" dy="0.76em" text-anchor="middle" font-family="sans-serif" font-size="9.67741935483871" opacity="1" fill="#000000">
50
</text>
<polyline fill="none" opacity="1" stroke="#000000" stroke-width="1" points="207,368 207,373 "/>
<text x="242" y="378" dy="0.76em" text-anchor="middle" font-family="sans-serif" font-size="9.67741935483871" opacity="1" fill="#000000">
60
</text>
<polyline fill="none" opacity="1" stroke="#000000" stroke-width="1" points="242,368 242,373 "/>
<text x="278" y="378" dy="0.76em" text-anchor="middle" font-family="sans-serif" font-size="9.67741935483871" opacity="1" fill="#000000">
70
</text>
<polyline fill="none" opacity="1" stroke="#000000" stroke-width="1" points="278,368 278,373 "/>
<text x="313" y="378" dy="0.76em" text-anchor="middle" font-family="sans-serif" font-size="9.67741935483871" opacity="1" fill="#000000">
80
</text>
<polyline fill="none" opacity="1" stroke="#000000" stroke-width="1" points="313,368 313,373 "/>
<text x="349" y="378" dy="0.76em" text-anchor="middle" font-family="sans-serif" font-size="9.67741935483871" opacity="1" fill="#000000">
90
</text>
<polyline fill="none" opacity="1" stroke="#000000" stroke-width="1" points="349,368 349,373 "/>
<text x="385" y="378" dy="0.76em" text-anchor="middle" font-family="sans-serif" font-size="9.67741935483871" opacity="1" fill="#000000">
100
</text>
<polyline fill="none" opacity="1" stroke="#000000" stroke-width="1" points="385,368 385,373 "/>
<rect x="113" y="302" width="4" height="65" opacity="1" fill="#0000FF" stroke="none"/>
<rect x="287" y="352" width="3" height="15" opacity="1" fill="#0000FF" stroke="none"/>
<rect x="195" y="126" width="3" height="241" opacity="1" fill="#0000FF" stroke="none"/>
<rect x="301" y="361" width="4" height="6" opacity="1" fill="#0000FF" stroke="none"/>
<rect x="305" y="363" width="3" height="4" opacity="1" fill="#0000FF" stroke="none"/>
<rect x="333" y="367" width="3" height="0" opacity="1" fill="#0000FF" stroke="none"/>
<rect x="244" y="272" width="4" height="95" opacity="1" fill="#0000FF" stroke="none"/>
<rect x="216" y="181" width="3" height="186" opacity="1" fill="#0000FF" stroke="none"/>
<rect x="269" y="330" width="4" height="37" opacity="1" fill="#0000FF" stroke="none"/>
<rect x="53" y="288" width="3" height="79" opacity="1" fill="#0000FF" stroke="none"/>
<rect x="85" y="315" width="3" height="52" opacity="1" fill="#0000FF" stroke="none"/>
<rect x="81" y="308" width="4" height="59" opacity="1" fill="#0000FF" stroke="none"/>
<rect x="74" y="308" width="4" height="59" opacity="1" fill="#0000FF" stroke="none"/>
<rect x="138" y="231" width="3" height="136" opacity="1" fill="#0000FF" stroke="none"/>
<rect x="149" y="185" width="3" height="182" opacity="1" fill="#0000FF" stroke="none"/>
<rect x="177" y="105" width="3" height="262" opacity="1" fill="#0000FF" stroke="none"/>
<rect x="315" y="365" width="4" height="2" opacity="1" fill="#0000FF" stroke="none"/>
<rect x="312" y="364" width="3" height="3" opacity="1" fill="#0000FF" stroke="none"/>
<rect x="124" y="282" width="3" height="85" opacity="1" fill="#0000FF" stroke="none"/>
<rect x="322" y="366" width="4" height="1" opacity="1" fill="#0000FF" stroke="none"/>
<rect x="46" y="288" width="3" height="79" opacity="1" fill="#0000FF" stroke="none"/>
<rect x="276" y="341" width="4" height="26" opacity="1" fill="#0000FF" stroke="none"/>
<rect x="95" y="310" width="4" height="57" opacity="1" fill="#0000FF" stroke="none"/>
<rect x="336" y="367" width="4" height="0" opacity="1" fill="#0000FF" stroke="none"/>
<rect x="39" y="267" width="3" height="100" opacity="1" fill="#0000FF" stroke="none"/>
<rect x="340" y="367" width="4" height="0" opacity="1" fill="#0000FF" stroke="none"/>
<rect x="227" y="205" width="3" height="162" opacity="1" fill="#0000FF" stroke="none"/>
<rect x="63" y="302" width="4" height="65" opacity="1" fill="#0000FF" stroke="none"/>
<rect x="117" y="291" width="3" height="76" opacity="1" fill="#0000FF" stroke="none"/>
<rect x="212" y="168" width="4" height="199" opacity="1" fill="#0000FF" stroke="none"/>
<rect x="141" y="223" width="4" height="144" opacity="1" fill="#0000FF" stroke="none"/>
<rect x="42" y="278" width="4" height="89" opacity="1" fill="#0000FF" stroke="none"/>
<rect x="88" y="314" width="4" height="53" opacity="1" fill="#0000FF" stroke="none"/>
<rect x="308" y="364" width="4" height="3" opacity="1" fill="#0000FF" stroke="none"/>
<rect x="237" y="257" width="4" height="110" opacity="1" fill="#0000FF" stroke="none"/>
<rect x="326" y="367" width="3" height="0" opacity="1" fill="#0000FF" stroke="none"/>
<rect x="351" y="367" width="3" height="0" opacity="1" fill="#0000FF" stroke="none"/>
<rect x="131" y="256" width="3" height="111" opacity="1" fill="#0000FF" stroke="none"/>
<rect x="188" y="108" width="3" height="259" opacity="1" fill="#0000FF" stroke="none"/>
<rect x="99" y="313" width="3" height="54" opacity="1" fill="#0000FF" stroke="none"/>
<rect x="266" y="322" width="3" height="45" opacity="1" fill="#0000FF" stroke="none"/>
<rect x="35" y="248" width="4" height="119" opacity="1" fill="#0000FF" stroke="none"/>
<rect x="67" y="303" width="4" height="64" opacity="1" fill="#0000FF" stroke="none"/>
<rect x="163" y="125" width="3" height="242" opacity="1" fill="#0000FF" stroke="none"/>
<rect x="106" y="312" width="4" height="55" opacity="1" fill="#0000FF" stroke="none"/>
<rect x="202" y="135" width="3" height="232" opacity="1" fill="#0000FF" stroke="none"/>
<rect x="173" y="99" width="4" height="268" opacity="1" fill="#0000FF" stroke="none"/>
<rect x="230" y="221" width="4" height="146" opacity="1" fill="#0000FF" stroke="none"/>
<rect x="134" y="251" width="4" height="116" opacity="1" fill="#0000FF" stroke="none"/>
<rect x="319" y="365" width="3" height="2" opacity="1" fill="#0000FF" stroke="none"/>
<rect x="219" y="188" width="4" height="179" opacity="1" fill="#0000FF" stroke="none"/>
<rect x="283" y="350" width="4" height="17" opacity="1" fill="#0000FF" stroke="none"/>
<rect x="184" y="98" width="4" height="269" opacity="1" fill="#0000FF" stroke="none"/>
<rect x="294" y="357" width="3" height="10" opacity="1" fill="#0000FF" stroke="none"/>
<rect x="209" y="153" width="3" height="214" opacity="1" fill="#0000FF" stroke="none"/>
<rect x="241" y="263" width="3" height="104" opacity="1" fill="#0000FF" stroke="none"/>
<rect x="60" y="302" width="3" height="65" opacity="1" fill="#0000FF" stroke="none"/>
<rect x="170" y="107" width="3" height="260" opacity="1" fill="#0000FF" stroke="none"/>
<rect x="180" y="96" width="4" height="271" opacity="1" fill="#0000FF" stroke="none"/>
<rect x="251" y="294" width="4" height="73" opacity="1" fill="#0000FF" stroke="none"/>
<rect x="120" y="290" width="4" height="77" opacity="1" fill="#0000FF" stroke="none"/>
<rect x="102" y="313" width="4" height="54" opacity="1" fill="#0000FF" stroke="none"/>
<rect x="205" y="136" width="4" height="231" opacity="1" fill="#0000FF" stroke="none"/>
<rect x="78" y="312" width="3" height="55" opacity="1" fill="#0000FF" stroke="none"/>
<rect x="223" y="206" width="4" height="161" opacity="1" fill="#0000FF" stroke="none"/>
<rect x="255" y="303" width="3" height="64" opacity="1" fill="#0000FF" stroke="none"/>
<rect x="258" y="308" width="4" height="59" opacity="1" fill="#0000FF" stroke="none"/>
<rect x="145" y="197" width="4" height="170" opacity="1" fill="#0000FF" stroke="none"/>
<rect x="344" y="367" width="3" height="0" opacity="1" fill="#0000FF" stroke="none"/>
<rect x="198" y="115" width="4" height="252" opacity="1" fill="#0000FF" stroke="none"/>
<rect x="290" y="355" width="4" height="12" opacity="1" fill="#0000FF" stroke="none"/>
<rect x="49" y="293" width="4" height="74" opacity="1" fill="#0000FF" stroke="none"/>
<rect x="92" y="314" width="3" height="53" opacity="1" fill="#0000FF" stroke="none"/>
<rect x="262" y="316" width="4" height="51" opacity="1" fill="#0000FF" stroke="none"/>
<rect x="297" y="359" width="4" height="8" opacity="1" fill="#0000FF" stroke="none"/>
<rect x="329" y="366" width="4" height="1" opacity="1" fill="#0000FF" stroke="none"/>
<rect x="156" y="156" width="3" height="211" opacity="1" fill="#0000FF" stroke="none"/>
<rect x="273" y="333" width="3" height="34" opacity="1" fill="#0000FF" stroke="none"/>
<rect x="280" y="345" width="3" height="22" opacity="1" fill="#0000FF" stroke="none"/>
<rect x="166" y="125" width="4" height="242" opacity="1" fill="#0000FF" stroke="none"/>
<rect x="152" y="182" width="4" height="185" opacity="1" fill="#0000FF" stroke="none"/>
<rect x="234" y="243" width="3" height="124" opacity="1" fill="#0000FF" stroke="none"/>
<rect x="32" y="209" width="3" height="158" opacity="1" fill="#0000FF" stroke="none"/>
<rect x="71" y="304" width="3" height="63" opacity="1" fill="#0000FF" stroke="none"/>
<rect x="347" y="367" width="4" height="0" opacity="1" fill="#0000FF" stroke="none"/>
<rect x="248" y="284" width="3" height="83" opacity="1" fill="#0000FF" stroke="none"/>
<rect x="191" y="106" width="4" height="261" opacity="1" fill="#0000FF" stroke="none"/>
<rect x="110" y="304" width="3" height="63" opacity="1" fill="#0000FF" stroke="none"/>
<rect x="127" y="269" width="4" height="98" opacity="1" fill="#0000FF" stroke="none"/>
<rect x="56" y="293" width="4" height="74" opacity="1" fill="#0000FF" stroke="none"/>
<rect x="159" y="138" width="4" height="229" opacity="1" fill="#0000FF" stroke="none"/>
</svg>
